<?xml version="1.0" standalone="no"?><svg xmlns="http://www.w3.org/2000/svg" viewBox="0 0 1440 320"><path fill="#1b2223" fill-opacity="0.5" d="M0,192L34.3,208C68.6,224,137,256,206,261.3C274.3,267,343,245,411,213.3C480,181,549,139,617,101.3C685.7,64,754,32,823,37.3C891.4,43,960,85,1029,138.7C1097.1,192,1166,256,1234,282.7C1302.9,309,1371,299,1406,293.3L1440,288L1440,320L1405.7,320C1371.4,320,1303,320,1234,320C1165.7,320,1097,320,1029,320C960,320,891,320,823,320C754.3,320,686,320,617,320C548.6,320,480,320,411,320C342.9,320,274,320,206,320C137.1,320,69,320,34,320L0,320Z"></path></svg>